  0
SECTION
  2
BLOCKS
  0
ENDSEC
  0
SECTION
  2
ENTITIES
  0
LINE
  8
0
 10
-11.25
 20
10.0118
 11
-11.25
 21
14.0039
  0
LINE
  8
0
 10
-11.25
 20
14.0039
 11
36
 21
14.0039
  0
LINE
  8
0
 10
36
 20
14.0039
 11
36
 21
13.0059
  0
LINE
  8
0
 10
36
 20
13.0059
 11
46
 21
13.0059
  0
LINE
  8
0
 10
46
 20
13.0059
 11
46
 21
8.51479
  0
LINE
  8
0
 10
46
 20
8.51479
 11
49
 21
8.51479
  0
LINE
  8
0
 10
49
 20
8.51479
 11
49
 21
22.5148
  0
LINE
  8
0
 10
49
 20
22.5148
 11
52
 21
22.5148
  0
LINE
  8
0
 10
52
 20
22.5148
 11
52
 21
36.5148
  0
LINE
  8
0
 10
52
 20
36.5148
 11
55
 21
36.5148
  0
LINE
  8
0
 10
55
 20
36.5148
 11
55
 21
51.4852
  0
LINE
  8
0
 10
55
 20
51.4852
 11
52
 21
51.4852
  0
LINE
  8
0
 10
52
 20
51.4852
 11
52
 21
46.9941
  0
LINE
  8
0
 10
52
 20
46.9941
 11
36
 21
46.9941
  0
LINE
  8
0
 10
36
 20
46.9941
 11
36
 21
45.996
  0
LINE
  8
0
 10
36
 20
45.996
 11
-11.25
 21
45.996
  0
LINE
  8
0
 10
-11.25
 20
45.996
 11
-11.25
 21
49.9882
  0
LINE
  8
0
 10
-11.25
 20
49.9882
 11
-12.75
 21
49.9882
  0
LINE
  8
0
 10
-12.75
 20
49.9882
 11
-12.75
 21
38.0118
  0
LINE
  8
0
 10
-12.75
 20
38.0118
 11
-11.25
 21
38.0118
  0
LINE
  8
0
 10
-11.25
 20
38.0118
 11
-11.25
 21
42.0039
  0
LINE
  8
0
 10
-11.25
 20
42.0039
 11
36
 21
42.0039
  0
LINE
  8
0
 10
36
 20
42.0039
 11
36
 21
41.0059
  0
LINE
  8
0
 10
36
 20
41.0059
 11
52
 21
41.0059
  0
LINE
  8
0
 10
52
 20
41.0059
 11
52
 21
37.4852
  0
LINE
  8
0
 10
52
 20
37.4852
 11
49
 21
37.4852
  0
LINE
  8
0
 10
49
 20
37.4852
 11
49
 21
32.9941
  0
LINE
  8
0
 10
49
 20
32.9941
 11
36
 21
32.9941
  0
LINE
  8
0
 10
36
 20
32.9941
 11
36
 21
31.996
  0
LINE
  8
0
 10
36
 20
31.996
 11
-11.25
 21
31.996
  0
LINE
  8
0
 10
-11.25
 20
31.996
 11
-11.25
 21
35.9882
  0
LINE
  8
0
 10
-11.25
 20
35.9882
 11
-12.75
 21
35.9882
  0
LINE
  8
0
 10
-12.75
 20
35.9882
 11
-12.75
 21
24.0118
  0
LINE
  8
0
 10
-12.75
 20
24.0118
 11
-11.25
 21
24.0118
  0
LINE
  8
0
 10
-11.25
 20
24.0118
 11
-11.25
 21
28.0039
  0
LINE
  8
0
 10
-11.25
 20
28.0039
 11
36
 21
28.0039
  0
LINE
  8
0
 10
36
 20
28.0039
 11
36
 21
27.0059
  0
LINE
  8
0
 10
36
 20
27.0059
 11
49
 21
27.0059
  0
LINE
  8
0
 10
49
 20
27.0059
 11
49
 21
23.4852
  0
LINE
  8
0
 10
49
 20
23.4852
 11
46
 21
23.4852
  0
LINE
  8
0
 10
46
 20
23.4852
 11
46
 21
18.9941
  0
LINE
  8
0
 10
46
 20
18.9941
 11
36
 21
18.9941
  0
LINE
  8
0
 10
36
 20
18.9941
 11
36
 21
17.996
  0
LINE
  8
0
 10
36
 20
17.996
 11
-11.25
 21
17.996
  0
LINE
  8
0
 10
-11.25
 20
17.996
 11
-11.25
 21
21.9882
  0
LINE
  8
0
 10
-11.25
 20
21.9882
 11
-12.75
 21
21.9882
  0
LINE
  8
0
 10
-12.75
 20
21.9882
 11
-12.75
 21
10.0118
  0
LINE
  8
0
 10
-12.75
 20
10.0118
 11
-11.25
 21
10.0118
  0
ENDSEC
  0
SECTION
  2
OBJECTS
  0
DICTIONARY
  0
ENDSEC
  0
EOF
