  0
SECTION
  2
BLOCKS
  0
ENDSEC
  0
SECTION
  2
ENTITIES
  0
LINE
  8
0
 10
-6
 20
0
 11
-5.95269
 21
-0.751999
  0
LINE
  8
0
 10
-5.95269
 20
-0.751999
 11
-5.8115
 21
-1.49214
  0
LINE
  8
0
 10
-5.8115
 20
-1.49214
 11
-5.57866
 21
-2.20875
  0
LINE
  8
0
 10
-5.57866
 20
-2.20875
 11
-5.25784
 21
-2.89052
  0
LINE
  8
0
 10
-5.25784
 20
-2.89052
 11
-4.8541
 21
-3.52671
  0
LINE
  8
0
 10
-4.8541
 20
-3.52671
 11
-4.37381
 21
-4.10728
  0
LINE
  8
0
 10
-4.37381
 20
-4.10728
 11
-3.82454
 21
-4.62308
  0
LINE
  8
0
 10
-3.82454
 20
-4.62308
 11
-3.21496
 21
-5.06597
  0
LINE
  8
0
 10
-3.21496
 20
-5.06597
 11
-2.55468
 21
-5.42896
  0
LINE
  8
0
 10
-2.55468
 20
-5.42896
 11
-1.8541
 21
-5.70634
  0
LINE
  8
0
 10
-1.8541
 20
-5.70634
 11
-1.12429
 21
-5.89372
  0
LINE
  8
0
 10
-1.12429
 20
-5.89372
 11
-0.376742
 21
-5.98816
  0
LINE
  8
0
 10
-0.376742
 20
-5.98816
 11
0.376742
 21
-5.98816
  0
LINE
  8
0
 10
0.376742
 20
-5.98816
 11
1.12429
 21
-5.89372
  0
LINE
  8
0
 10
1.12429
 20
-5.89372
 11
1.8541
 21
-5.70634
  0
LINE
  8
0
 10
1.8541
 20
-5.70634
 11
2.55468
 21
-5.42896
  0
LINE
  8
0
 10
2.55468
 20
-5.42896
 11
3.21496
 21
-5.06597
  0
LINE
  8
0
 10
3.21496
 20
-5.06597
 11
3.82454
 21
-4.62308
  0
LINE
  8
0
 10
3.82454
 20
-4.62308
 11
4.37381
 21
-4.10728
  0
LINE
  8
0
 10
4.37381
 20
-4.10728
 11
4.8541
 21
-3.52671
  0
LINE
  8
0
 10
4.8541
 20
-3.52671
 11
5.25784
 21
-2.89052
  0
LINE
  8
0
 10
5.25784
 20
-2.89052
 11
5.57866
 21
-2.20875
  0
LINE
  8
0
 10
5.57866
 20
-2.20875
 11
5.8115
 21
-1.49214
  0
LINE
  8
0
 10
5.8115
 20
-1.49214
 11
5.95269
 21
-0.751999
  0
LINE
  8
0
 10
5.95269
 20
-0.751999
 11
6
 21
0
  0
LINE
  8
0
 10
6
 20
0
 11
5.95269
 21
0.751999
  0
LINE
  8
0
 10
5.95269
 20
0.751999
 11
5.8115
 21
1.49214
  0
LINE
  8
0
 10
5.8115
 20
1.49214
 11
5.57866
 21
2.20875
  0
LINE
  8
0
 10
5.57866
 20
2.20875
 11
5.25784
 21
2.89052
  0
LINE
  8
0
 10
5.25784
 20
2.89052
 11
4.8541
 21
3.52671
  0
LINE
  8
0
 10
4.8541
 20
3.52671
 11
4.37381
 21
4.10728
  0
LINE
  8
0
 10
4.37381
 20
4.10728
 11
3.82454
 21
4.62308
  0
LINE
  8
0
 10
3.82454
 20
4.62308
 11
3.21496
 21
5.06597
  0
LINE
  8
0
 10
3.21496
 20
5.06597
 11
2.55468
 21
5.42896
  0
LINE
  8
0
 10
2.55468
 20
5.42896
 11
1.8541
 21
5.70634
  0
LINE
  8
0
 10
1.8541
 20
5.70634
 11
1.12429
 21
5.89372
  0
LINE
  8
0
 10
1.12429
 20
5.89372
 11
0.376742
 21
5.98816
  0
LINE
  8
0
 10
0.376742
 20
5.98816
 11
-0.376742
 21
5.98816
  0
LINE
  8
0
 10
-0.376742
 20
5.98816
 11
-1.12429
 21
5.89372
  0
LINE
  8
0
 10
-1.12429
 20
5.89372
 11
-1.8541
 21
5.70634
  0
LINE
  8
0
 10
-1.8541
 20
5.70634
 11
-2.55468
 21
5.42896
  0
LINE
  8
0
 10
-2.55468
 20
5.42896
 11
-3.21496
 21
5.06597
  0
LINE
  8
0
 10
-3.21496
 20
5.06597
 11
-3.82454
 21
4.62308
  0
LINE
  8
0
 10
-3.82454
 20
4.62308
 11
-4.37381
 21
4.10728
  0
LINE
  8
0
 10
-4.37381
 20
4.10728
 11
-4.8541
 21
3.52671
  0
LINE
  8
0
 10
-4.8541
 20
3.52671
 11
-5.25784
 21
2.89052
  0
LINE
  8
0
 10
-5.25784
 20
2.89052
 11
-5.57866
 21
2.20875
  0
LINE
  8
0
 10
-5.57866
 20
2.20875
 11
-5.8115
 21
1.49214
  0
LINE
  8
0
 10
-5.8115
 20
1.49214
 11
-5.95269
 21
0.751999
  0
LINE
  8
0
 10
-5.95269
 20
0.751999
 11
-6
 21
0
  0
ENDSEC
  0
SECTION
  2
OBJECTS
  0
DICTIONARY
  0
ENDSEC
  0
EOF
